<svg xmlns="http://www.w3.org/2000/svg" viewBox="0 0 659.98 201.82"><defs><style>.a,.g,.i,.j{fill:none;}.a{stroke:#fff;stroke-width:6px;}.a,.e,.j{stroke-miterlimit:10;}.b,.f{fill:#29beff;}.c{fill:#006ec9;}.d{fill:#fff;}.d,.f,.g,.j{stroke:#006ec9;}.d,.f,.g,.h,.i,.j{stroke-linecap:round;}.d,.f,.g,.h,.i{stroke-linejoin:round;}.d,.f,.g{stroke-width:5.21px;}.e,.h{fill:#ffdd38;stroke:#c8a100;}.e{stroke-width:5.12px;}.h{stroke-width:4.5px;}.i{stroke:#ffdd38;stroke-width:7.77px;}.j{stroke-width:4.94px;}</style></defs><title>MtSmall</title><path class="a" d="M152.67,162.86" transform="translate(-2.88 -2.77)"/><path class="a" d="M140.08,155.6" transform="translate(-2.88 -2.77)"/><path class="a" d="M137.23,161.93" transform="translate(-2.88 -2.77)"/><path class="a" d="M122.93,154.06" transform="translate(-2.88 -2.77)"/><polygon class="b" points="80 69.85 49.39 142.4 18.78 69.85 5.02 69.85 0.46 69.85 0 165.83 13.81 165.83 14.06 100.6 41.21 165.83 53.88 165.83 81.06 100.26 81.42 165.83 97.93 165.83 97.48 69.85 80 69.85"/><path class="b" d="M161.54,93.39l-17,51.69L125.75,93.39H107l29,73.08c-5.32,14.36-10.07,25.2-17.53,25.2a12.67,12.67,0,0,1-4.57-1l-3.53-1.63-2.17,12.18,1.7,1.08c.37.23,3.76,2.27,10.13,2.27,14.81,0,22.35-17.44,29.39-36.89l26-74.31Z" transform="translate(-2.88 -2.77)"/><polygon class="c" points="228.44 69.94 158.95 69.94 158.95 82.58 185.22 82.58 185.22 165.92 202.02 165.92 202.02 82.58 228.44 82.58 228.44 69.94"/><rect class="c" x="297.29" y="90.7" width="16.37" height="75.21"/><path class="c" d="M314.64,69.69a9.53,9.53,0,0,0-6.21-2.1A8.58,8.58,0,0,0,302.22,70a9,9,0,0,0,6.21,15.53,9.9,9.9,0,0,0,6.07-2.13l.22-.17.19-.2a9.42,9.42,0,0,0,2.49-6.45A9.73,9.73,0,0,0,314.91,70Z" transform="translate(-2.88 -2.77)"/><path class="c" d="M350.64,71.61H338.58L334.7,93.89l-7.82.88v11.5h7.39v40.88c0,9.84,1.87,22.93,18.06,22.93,9.85,0,14.38-2.81,14.86-3.13l1.56-1-1.46-11.28-3.63,1.51a23.13,23.13,0,0,1-8.07,1.29c-2.44,0-5,0-5-12.78V106.26h18.18V93.48H350.64Z" transform="translate(-2.88 -2.77)"/><rect class="c" x="376.55" y="90.7" width="16.37" height="75.21"/><path class="c" d="M393.9,69.69a9.53,9.53,0,0,0-6.21-2.1A8.57,8.57,0,0,0,381.48,70a9,9,0,0,0,6.21,15.53,9.9,9.9,0,0,0,6.07-2.13l.22-.17.19-.2a9.42,9.42,0,0,0,2.49-6.45A9.73,9.73,0,0,0,394.17,70Z" transform="translate(-2.88 -2.77)"/><path class="c" d="M438.82,92.09c-21.13,0-33.25,14.21-33.25,39s12.12,39,33.25,39c20.82,0,33.26-14.58,33.26-39C472.08,106.3,460,92.09,438.82,92.09Zm0,65.89c-7.6,0-16.32-3.06-16.32-26.9s8.72-26.9,16.32-26.9,16.32,3.06,16.32,26.9S446.42,158,438.82,158Z" transform="translate(-2.88 -2.77)"/><path class="c" d="M516.86,92.06c-9.44,0-15.67,2.83-19.37,5.39l-.88-4H482.28v75.21H499v-58c1.65-1.57,6.37-5.25,14.4-5.25,8.44,0,12.21,4.33,12.21,14v49.24h16.67V117.34C542.23,101.27,533,92.06,516.86,92.06Z" transform="translate(-2.88 -2.77)"/><path class="c" d="M269.61,151.49c-1.65,1.57-6.37,5.25-14.4,5.25-8.44,0-12.21-4.33-12.21-14V93.48H226.33v51.31c0,16.07,9.25,25.29,25.37,25.29,9.44,0,15.67-2.83,19.37-5.39l.88,4h14.33V93.48H269.61Z" transform="translate(-2.88 -2.77)"/><polyline class="d" points="552.22 139.71 564.52 163.1 587.9 150.81"/><path class="e" d="M596.16,134.35l2.46-7.93c4.39-11.09,15.1-15.36,15.16-15.38h0c11.47-4.94,21.32-16.27,25.34-29.24,7.26-23.36-5.52-48.1-28.54-55.27s-47.58,6-54.85,29.35c-4,13-2.35,27.88,4.3,38.45h0c0,.05,6.1,11.38,3.77,21.27l-2.47,7.92" transform="translate(-2.88 -2.77)"/><polygon class="f" points="588.23 149.82 552.51 138.72 560.27 113.77 595.98 124.86 588.23 149.82"/><polygon class="c" points="575.83 156.35 564.82 162.15 559.01 151.14 575.83 156.35"/><polyline class="g" points="563.06 141.52 570.68 117 585.58 121.63 577.95 146.15"/><path class="h" d="M584,112.42c.71-4.78-1.1-10.52-1.81-14.91A127.76,127.76,0,0,1,580.22,81c-.25-7.27,3-17.45,10-20,7.69-2.75,11.45,8.06,9,16.6-.88,3.06-4,8.72-6.48,7.84-2.12-.74-2.31-5.54-1.57-8.52,3.07-12.29,17.47-17.47,19.61-4.76.67,4-.78,8.3-2.84,11.88-3.7,6.41-9.12,11.6-13.91,16.64-3.49,3.69-6.76,7.71-10,11.73" transform="translate(-2.88 -2.77)"/><path class="i" d="M615.64,127.1a61.61,61.61,0,1,0-77.23-41" transform="translate(-2.88 -2.77)"/><line class="j" x1="529.97" y1="163.4" x2="564.19" y2="163.4"/></svg>